# Blender v2.79 (sub 0) OBJ File: 'dimrock.blend'
# www.blender.org
mtllib dimrock.mtl
o Icosphere
v 1.174494 1.371637 0.055864
v 1.516639 1.391129 0.287985
v 0.968857 1.391129 0.465973
v 0.630300 1.391129 0.000000
v 0.968857 1.391129 -0.465973
v 1.516639 1.391129 -0.287985
v 1.350494 1.729487 0.419788
v 0.631943 1.735216 0.164038
v 0.676051 1.731306 -0.392122
v 1.365322 1.707885 -0.440521
v 1.673159 1.761688 -0.017801
v 1.120258 1.973752 0.000000
vn 0.0184 -0.9982 0.0567
vn 0.0569 -0.9984 0.0000
vn -0.0387 -0.9989 0.0281
vn -0.0333 -0.9992 -0.0242
vn 0.0139 -0.9990 -0.0428
vn 0.9212 -0.3891 0.0000
vn 0.3019 -0.2137 0.9291
vn -0.7798 -0.2664 0.5666
vn -0.7032 -0.4944 -0.5109
vn 0.2951 -0.2964 -0.9083
vn 0.7894 0.1564 0.5936
vn -0.2964 0.4493 0.8428
vn -0.9959 0.0426 -0.0793
vn -0.0638 0.1590 -0.9852
vn 0.7988 0.0956 -0.5939
vn 0.3481 0.8806 0.3215
vn -0.1971 0.7965 0.5716
vn -0.4499 0.8921 -0.0420
vn -0.0075 0.8543 -0.5197
vn 0.3258 0.8787 -0.3491
usemtl Material.001
s off
f 1//1 2//1 3//1
f 2//2 1//2 6//2
f 1//3 3//3 4//3
f 1//4 4//4 5//4
f 1//5 5//5 6//5
f 2//6 6//6 11//6
f 3//7 2//7 7//7
f 4//8 3//8 8//8
f 5//9 4//9 9//9
f 6//10 5//10 10//10
f 2//11 11//11 7//11
f 3//12 7//12 8//12
f 4//13 8//13 9//13
f 5//14 9//14 10//14
f 6//15 10//15 11//15
f 7//16 11//16 12//16
f 8//17 7//17 12//17
f 9//18 8//18 12//18
f 10//19 9//19 12//19
f 11//20 10//20 12//20
